<mxfile host="65bd71144e">
    <diagram id="m0lXYld91MvytKlFTxcg" name="Page-1">
        <mxGraphModel dx="433" dy="563" grid="1" gridSize="10" guides="1" tooltips="1" connect="1" arrows="1" fold="1" page="1" pageScale="1" pageWidth="850" pageHeight="1100" math="0" shadow="0">
            <root>
                <mxCell id="0"/>
                <mxCell id="1" parent="0"/>
                <mxCell id="2" value="Class: Entry&lt;br&gt;Fields: prompt (String)&lt;br&gt;response(String)&lt;br&gt;date(String)" style="whiteSpace=wrap;html=1;aspect=fixed;" parent="1" vertex="1">
                    <mxGeometry x="80" y="80" width="160" height="160" as="geometry"/>
                </mxCell>
                <mxCell id="3" value="Class: Journal&lt;br&gt;Field: generator (List&amp;lt;Entry&amp;gt;)&lt;br&gt;Method: ini(Void)&lt;br&gt;add_entry(Void)&lt;br&gt;display_entry(Void)&lt;br&gt;save_journal(Void)&lt;br&gt;&amp;nbsp;load_journal(Void)&amp;nbsp;" style="whiteSpace=wrap;html=1;aspect=fixed;" parent="1" vertex="1">
                    <mxGeometry x="280" y="80" width="160" height="160" as="geometry"/>
                </mxCell>
                <mxCell id="6" value="Class: Program&lt;br&gt;Fields: Filename(CVS)&lt;br&gt;&amp;nbsp;Myself(Count)&lt;br&gt;Method: init(void) -Journa&lt;br&gt;run(void)-display with if&lt;br&gt;display_menu(void)-self" style="whiteSpace=wrap;html=1;aspect=fixed;" parent="1" vertex="1">
                    <mxGeometry x="680" y="80" width="160" height="160" as="geometry"/>
                </mxCell>
                <mxCell id="9" value="Class: Prompt_Generator&lt;br&gt;Field: WriteNew(String)" style="rounded=0;whiteSpace=wrap;html=1;" parent="1" vertex="1">
                    <mxGeometry x="480" y="80" width="160" height="160" as="geometry"/>
                </mxCell>
            </root>
        </mxGraphModel>
    </diagram>
</mxfile>